# xmcd
#
# Track frame offsets:
#	150
#	20432
#	48496
#	72604
#	112970
#	153604
#	200473
#
# Disc length: 3272 seconds
#
# Revision: 1
# Processed by: cddbd v1.5.1PL2 Copyright (c) Steve Scherf et al.
# Submitted via: EasyCDDAExtractor 9.0.0.1
#
DISCID=5f0cc607
DTITLE=Deep Purple - Stadthalle Osnabrcuk 13-06-06 Disc 2
DYEAR=2006
DGENRE=Hard Rock
TTITLE0=Don Airey Solo
TTITLE1=Perfect Strangers
TTITLE2=Space Truckin'
TTITLE3=Highway Star
TTITLE4=Smoke On The Water
TTITLE5=Speed King
TTITLE6=Black Night
EXTD=
EXTT0=
EXTT1=
EXTT2=
EXTT3=
EXTT4=
EXTT5=
EXTT6=
PLAYORDER=
